<?xml version="1.0" standalone="no"?>
<!DOCTYPE svg PUBLIC "-//W3C//DTD SVG 20010904//EN"
 "http://www.w3.org/TR/2001/REC-SVG-20010904/DTD/svg10.dtd">
<svg version="1.0" xmlns="http://www.w3.org/2000/svg"
 width="200.000000pt" height="200.000000pt" viewBox="0 0 200.000000 200.000000"
 preserveAspectRatio="xMidYMid meet">
<metadata>
Created by potrace 1.16, written by Peter Selinger 2001-2019
</metadata>
<g transform="translate(0.000000,200.000000) scale(0.100000,-0.100000)"
fill="#000000" stroke="none">
<path d="M679 1977 c-24 -13 -57 -43 -74 -66 -27 -39 -30 -50 -30 -125 0 -71
3 -87 25 -119 42 -63 94 -91 175 -95 59 -3 77 0 115 21 25 13 58 43 75 66 25
36 30 54 33 114 4 92 -22 147 -92 195 -43 28 -56 32 -116 32 -51 0 -77 -6
-111 -23z"/>
<path d="M1464 1581 c-22 -10 -54 -35 -72 -56 l-31 -38 -309 6 c-350 8 -388 3
-449 -58 -53 -53 -48 -79 68 -395 l102 -275 -6 -114 c-4 -62 -8 -115 -9 -116
-2 -1 -80 -54 -175 -119 -129 -88 -175 -125 -187 -151 -19 -39 -20 -59 -4 -88
18 -35 40 -46 89 -47 42 0 60 10 250 139 123 83 209 149 216 163 6 14 14 75
18 136 4 62 10 112 12 112 3 0 60 -47 128 -105 l123 -104 51 -207 c59 -240 72
-264 147 -264 35 0 47 5 68 31 17 20 26 42 26 66 0 42 -97 448 -115 483 -7 14
-87 86 -177 160 l-164 135 -48 130 c-26 72 -60 164 -75 206 l-28 76 226 -5
226 -4 28 -35 c42 -50 95 -73 167 -73 l60 0 0 30 c0 29 -2 30 -45 30 -58 0
-106 20 -133 55 -16 20 -19 32 -12 45 6 10 10 35 10 55 0 20 -4 45 -10 55 -22
41 63 100 144 100 44 0 46 1 46 30 0 30 0 30 -57 30 -35 0 -75 -8 -99 -19z"/>
</g>
</svg>
