<?xml version="1.0" standalone="no"?>
<!DOCTYPE svg PUBLIC "-//W3C//DTD SVG 20010904//EN"
 "http://www.w3.org/TR/2001/REC-SVG-20010904/DTD/svg10.dtd">
<svg version="1.0" xmlns="http://www.w3.org/2000/svg"
 width="1600.000000pt" height="1600.000000pt" viewBox="0 0 1600.000000 1600.000000"
 preserveAspectRatio="xMidYMid meet">
<metadata>
Created by potrace 1.16, written by Peter Selinger 2001-2019
</metadata>
<g transform="translate(0.000000,1600.000000) scale(0.100000,-0.100000)"
fill="#000000" stroke="none">
<path d="M8865 15359 c-408 -43 -813 -244 -1094 -545 -240 -257 -392 -563
-452 -914 -27 -160 -27 -401 1 -565 82 -483 359 -906 770 -1178 41 -27 66 -47
55 -43 -180 53 -393 74 -567 57 -567 -57 -1076 -407 -1545 -1061 -91 -127
-1867 -2900 -1930 -3012 -151 -274 -268 -589 -293 -793 -20 -155 8 -393 65
-565 13 -41 25 -84 25 -95 0 -11 -131 -578 -292 -1261 l-293 -1241 -965 -669
c-645 -447 -989 -692 -1039 -739 -170 -160 -286 -369 -337 -605 -27 -126 -25
-355 5 -475 28 -114 52 -179 106 -285 92 -179 98 -190 124 -190 16 0 49 -24
100 -73 369 -353 875 -438 1306 -219 64 32 2151 1420 2419 1608 141 99 334
314 438 489 20 33 220 523 444 1089 225 565 413 1030 419 1032 6 3 296 -96
645 -219 l635 -224 0 -1484 0 -1484 24 -85 c98 -352 347 -639 666 -767 163
-65 222 -76 415 -76 158 -1 184 2 273 26 193 52 376 156 512 292 137 136 235
301 291 490 l27 90 9 1085 c4 597 7 1445 5 1885 l-3 800 -27 104 c-73 278
-205 484 -420 656 -206 165 -318 231 -962 567 -346 180 -629 332 -628 337 3
12 1231 1892 1246 1908 9 10 205 -22 887 -142 481 -85 926 -160 988 -167 130
-14 278 -2 410 32 44 11 534 162 1088 335 1094 342 1051 326 1203 449 161 130
290 354 335 582 12 59 14 -630 15 -4633 l1 -4703 320 0 320 0 -2 7302 -3 7303
-317 3 -318 2 -1 -2492 0 -2493 -24 102 c-40 172 -122 327 -242 453 -132 140
-263 220 -438 267 -88 23 -119 26 -260 26 -126 0 -180 -4 -255 -20 -52 -12
-442 -98 -866 -192 l-772 -170 -553 241 c-305 132 -855 371 -1224 530 -368
159 -654 287 -635 283 331 -59 598 -42 893 56 557 185 1002 660 1141 1216 46
181 51 229 50 453 0 244 -14 331 -84 543 -257 770 -1029 1270 -1835 1186z
m302 -640 c410 -45 767 -320 909 -699 46 -121 65 -213 71 -348 20 -397 -165
-762 -493 -978 -448 -294 -1044 -227 -1412 160 -157 166 -260 376 -292 595
-19 129 -8 343 24 461 120 436 493 757 939 809 105 12 147 12 254 0z m-1300
-3195 c102 -21 167 -45 533 -199 287 -121 1619 -696 2351 -1016 l297 -130 883
196 c486 108 920 203 964 211 148 28 266 3 335 -72 68 -74 95 -143 95 -244 0
-71 -4 -94 -26 -141 -28 -60 -89 -128 -136 -152 -55 -29 -1980 -626 -2053
-638 -41 -6 -99 -8 -130 -5 -30 4 -543 92 -1139 198 -681 120 -1089 187 -1098
182 -25 -17 -1873 -2858 -1864 -2867 5 -5 419 -222 920 -483 990 -514 1091
-574 1252 -733 85 -85 120 -149 139 -251 10 -50 11 -472 5 -1830 -7 -1725 -7
-1766 -27 -1825 -90 -272 -398 -401 -658 -276 -66 32 -162 118 -197 178 -14
24 -34 72 -45 106 -20 61 -20 86 -13 1720 l7 1657 -33 14 c-19 7 -713 253
-1544 546 -830 293 -1550 552 -1600 575 -374 180 -594 474 -636 850 -11 96
-10 107 14 203 33 130 82 254 171 427 48 95 362 593 970 1540 494 770 924
1436 955 1479 303 425 662 712 974 780 86 19 243 19 334 0z m-3337 -5686 c196
-144 353 -215 865 -393 171 -59 314 -112 319 -116 5 -4 -171 -459 -390 -1011
-381 -957 -402 -1007 -456 -1079 -131 -174 -154 -191 -1373 -1006 -621 -415
-1151 -766 -1177 -779 -142 -73 -322 -71 -462 4 -28 15 -79 54 -112 87 -201
198 -205 516 -9 709 38 37 437 319 1100 778 572 396 1042 721 1044 723 2 2
118 489 257 1082 140 593 257 1084 260 1092 3 11 11 8 32 -11 15 -14 61 -50
102 -80z"/>
</g>
</svg>
